<svg id="Calque_1" data-name="Calque 1" xmlns="http://www.w3.org/2000/svg" xmlns:xlink="http://www.w3.org/1999/xlink" viewBox="0 0 846.99 574.57"><defs><style>.cls-1{fill:none;}.cls-2{fill:#f2fff7;}.cls-3{fill:#dcffea;}.cls-4{clip-path:url(#clip-path);}</style><clipPath id="clip-path" transform="translate(0 29.73)"><rect class="cls-1" y="0.61" width="846.21" height="309.2"/></clipPath></defs><title>BAMBOU</title><rect class="cls-2" y="30.34" width="846.99" height="309.2"/><path class="cls-3" d="M846.21,0H642.75c-2.81,27-14.11,53.68-39.11,67.34C580.07,80.23,551.33,80.82,528.84,96a65.33,65.33,0,0,0-22.06,25.48c-6.32,13.07-9.76,34.43-13.22,48.16-11.71,46.48-25.39,46.67-51,62.23-29.71,18-51.76,49.42-51.57,77.91H846.21Z" transform="translate(0 29.73)"/><g class="cls-4"><path class="cls-2" d="M690,405l.49-68.71a4.05,4.05,0,0,0,1.23-2.91,4,4,0,0,0-3.9-4.09l-14.52-.11a4,4,0,0,0-4,4,4.17,4.17,0,0,0,1.19,2.93L670,404.86a4.09,4.09,0,0,0-1.23,2.91,4,4,0,0,0,3.9,4.09l14.53.1a4,4,0,0,0,4-4A4.08,4.08,0,0,0,690,405Z" transform="translate(0 29.73)"/><path class="cls-2" d="M689.35,489.07l.49-68.71a4.09,4.09,0,0,0,1.23-2.91,4,4,0,0,0-3.9-4.09l-14.53-.11a4,4,0,0,0-4,4,4.1,4.1,0,0,0,1.19,2.93l-.49,68.7a4.13,4.13,0,0,0-1.23,2.92,4,4,0,0,0,3.9,4.09l14.53.1a4,4,0,0,0,4-4A4.08,4.08,0,0,0,689.35,489.07Z" transform="translate(0 29.73)"/><path class="cls-2" d="M691.15,237.26l.49-68.7a4.14,4.14,0,0,0,1.24-2.92,4,4,0,0,0-3.91-4.09l-14.52-.1a4,4,0,0,0-4,4,4.08,4.08,0,0,0,1.19,2.93l-.5,68.71A4.09,4.09,0,0,0,670,240a4,4,0,0,0,3.91,4.09l14.52.11a4,4,0,0,0,4-4A4.1,4.1,0,0,0,691.15,237.26Z" transform="translate(0 29.73)"/><path class="cls-2" d="M690.55,321.33l.49-68.71a4.05,4.05,0,0,0,1.23-2.91,4,4,0,0,0-3.9-4.09l-14.52-.11a4,4,0,0,0-4,4,4.1,4.1,0,0,0,1.19,2.93l-.49,68.7a4.13,4.13,0,0,0-1.23,2.92,4,4,0,0,0,3.9,4.09l14.53.1a4,4,0,0,0,4-4A4.08,4.08,0,0,0,690.55,321.33Z" transform="translate(0 29.73)"/><path class="cls-2" d="M691.76,152.8l.49-68.71a4.09,4.09,0,0,0,1.23-2.91,4,4,0,0,0-3.9-4.09L675.05,77a4,4,0,0,0-4,4A4.1,4.1,0,0,0,672.28,84l-.49,68.7a4.09,4.09,0,0,0-1.23,2.92,4,4,0,0,0,3.9,4.09l14.53.1a4,4,0,0,0,4-4A4.12,4.12,0,0,0,691.76,152.8Z" transform="translate(0 29.73)"/><path class="cls-2" d="M692.36,68.73,692.85,0a4.09,4.09,0,0,0,1.23-2.91A4,4,0,0,0,690.18-7l-14.53-.1a4,4,0,0,0-4,4,4.08,4.08,0,0,0,1.19,2.93l-.49,68.71a4.09,4.09,0,0,0-1.23,2.91,4,4,0,0,0,3.9,4.09l14.53.1a4,4,0,0,0,4-4A4.08,4.08,0,0,0,692.36,68.73Z" transform="translate(0 29.73)"/><path class="cls-2" d="M714.69,399.9l4.45-68.55a4.13,4.13,0,0,0,1.4-2.84,4,4,0,0,0-3.66-4.32l-14.49-1A4,4,0,0,0,698.2,327a4.05,4.05,0,0,0,1,3l-4.46,68.56a4.08,4.08,0,0,0-1.39,2.83,4,4,0,0,0,3.66,4.33l14.49,1a4,4,0,0,0,4.18-3.78A4.11,4.11,0,0,0,714.69,399.9Z" transform="translate(0 29.73)"/><path class="cls-2" d="M709.23,483.78l4.46-68.55a4.13,4.13,0,0,0,1.4-2.83,4,4,0,0,0-3.66-4.33l-14.49-1a4,4,0,0,0-4.19,3.79,4.08,4.08,0,0,0,1,3l-4.46,68.55a4.13,4.13,0,0,0-1.4,2.84,4,4,0,0,0,3.67,4.32l14.49,1a4,4,0,0,0,4.18-3.79A4.09,4.09,0,0,0,709.23,483.78Z" transform="translate(0 29.73)"/><path class="cls-2" d="M725.56,232.53,730,164a4.13,4.13,0,0,0,1.4-2.84,4,4,0,0,0-3.66-4.32l-14.49-1a4,4,0,0,0-4.19,3.78,4.06,4.06,0,0,0,1,3l-4.46,68.56a4.11,4.11,0,0,0-1.4,2.83,4,4,0,0,0,3.66,4.32l14.5,1a4,4,0,0,0,4.18-3.78A4.08,4.08,0,0,0,725.56,232.53Z" transform="translate(0 29.73)"/><path class="cls-2" d="M720.11,316.41l4.46-68.55A4.13,4.13,0,0,0,726,245a4,4,0,0,0-3.66-4.33l-14.5-1a4,4,0,0,0-4.19,3.79,4.18,4.18,0,0,0,1,3L700.19,315a4.13,4.13,0,0,0-1.4,2.84,4,4,0,0,0,3.66,4.32l14.49,1a4,4,0,0,0,4.19-3.78A4.09,4.09,0,0,0,720.11,316.41Z" transform="translate(0 29.73)"/><path class="cls-2" d="M731,148.25,735.5,79.7a4.08,4.08,0,0,0,1.39-2.84,4,4,0,0,0-3.66-4.32l-14.49-1a4,4,0,0,0-4.18,3.79,4.13,4.13,0,0,0,1,3l-4.45,68.55a4.07,4.07,0,0,0-1.4,2.83,4,4,0,0,0,3.66,4.33l14.49,1a4,4,0,0,0,4.19-3.78A4.12,4.12,0,0,0,731,148.25Z" transform="translate(0 29.73)"/><path class="cls-2" d="M736.49,64.37,741-4.19A4.09,4.09,0,0,0,742.35-7a4,4,0,0,0-3.66-4.32l-14.5-1A4,4,0,0,0,720-8.56a4.11,4.11,0,0,0,1,3L716.57,63a4.09,4.09,0,0,0-1.4,2.83,4,4,0,0,0,3.66,4.32l14.5,1a4,4,0,0,0,4.18-3.78A4.08,4.08,0,0,0,736.49,64.37Z" transform="translate(0 29.73)"/><path class="cls-2" d="M758.45,11.51c6.31,10.2,13,20.17,19.63,30.2q10.78,16.41,21.51,32.85c-.5-1.93-1.08-4.07-1.77-6.37a167.81,167.81,0,0,0-42.08-70.8,143.5,143.5,0,0,0-12.91-11.63C748.42-5.9,753.17,3,758.45,11.51Z" transform="translate(0 29.73)"/><path class="cls-2" d="M776.38,42.43c-6.58-10-13.39-20-19.62-30.21-4.64-7.62-9-15.44-13.78-22.94.55,3.09,1.53,7.84,3.14,13.67a165,165,0,0,0,16,38.57A165.29,165.29,0,0,0,788.37,74,134.29,134.29,0,0,0,802,85.71s-.32-2.16-1.13-5.84Q788.7,61.09,776.38,42.43Z" transform="translate(0 29.73)"/><path class="cls-2" d="M773.33,81.24c6.31,10.21,13,20.17,19.63,30.2,7.18,10.94,14.38,21.88,21.5,32.85-.49-1.93-1.07-4.06-1.76-6.37a167.81,167.81,0,0,0-42.08-70.8,145,145,0,0,0-12.91-11.63C763.3,63.83,768.05,72.69,773.33,81.24Z" transform="translate(0 29.73)"/><path class="cls-2" d="M791.26,112.16c-6.59-10-13.39-20-19.63-30.21C767,74.33,762.69,66.51,757.86,59c.55,3.08,1.53,7.83,3.14,13.66a164.54,164.54,0,0,0,16,38.57,165.65,165.65,0,0,0,26.28,32.51,134.93,134.93,0,0,0,13.62,11.68s-.32-2.16-1.13-5.84Q803.58,130.82,791.26,112.16Z" transform="translate(0 29.73)"/><path class="cls-2" d="M664.05,112.67c-3.51,11.48-6.57,23.11-9.77,34.68q-5.22,18.92-10.52,37.83c1.13-1.65,2.35-3.5,3.63-5.53A163.38,163.38,0,0,0,665,142.11a164.64,164.64,0,0,0,7.88-40.78A145.83,145.83,0,0,0,673.11,84C670.52,93.66,667,103.06,664.05,112.67Z" transform="translate(0 29.73)"/><path class="cls-2" d="M652.62,146.54c3.2-11.56,6.18-23.22,9.77-34.67,2.68-8.51,5.71-16.91,8.17-25.48-2,2.45-4.88,6.32-8.21,11.37a165.09,165.09,0,0,0-18.47,37.43,165.54,165.54,0,0,0-7.11,41.2,133.73,133.73,0,0,0,.19,17.93s1.41-1.66,3.65-4.69C644.68,175.29,648.65,160.91,652.62,146.54Z" transform="translate(0 29.73)"/><path class="cls-2" d="M634.74,129.84c-9.34,7.53-18.39,15.45-27.51,23.25q-14.94,12.75-29.91,25.44c1.86-.73,3.9-1.57,6.11-2.54A163.68,163.68,0,0,0,619,154.75a164.14,164.14,0,0,0,29.36-29.37,146.86,146.86,0,0,0,9.93-14.26C650.75,117.71,642.56,123.52,634.74,129.84Z" transform="translate(0 29.73)"/><path class="cls-2" d="M606.3,151.49c9.12-7.78,18.12-15.78,27.51-23.25,7-5.55,14.21-10.81,21-16.54-3,.94-7.58,2.51-13.17,4.83a145.82,145.82,0,0,0-65.23,50.81,133.74,133.74,0,0,0-9.88,15s2.1-.58,5.64-1.85Q589.33,166.05,606.3,151.49Z" transform="translate(0 29.73)"/><path class="cls-2" d="M707.33,56c-3.51,11.48-6.57,23.1-9.76,34.67-3.49,12.62-7,25.24-10.53,37.83,1.13-1.65,2.35-3.49,3.64-5.53A163.8,163.8,0,0,0,708.29,85.4a164.88,164.88,0,0,0,7.87-40.77,145.81,145.81,0,0,0,.23-17.38C713.81,37,710.28,46.36,707.33,56Z" transform="translate(0 29.73)"/><path class="cls-2" d="M695.91,89.84c3.19-11.56,6.17-23.23,9.77-34.67,2.67-8.52,5.71-16.91,8.16-25.49-2,2.46-4.88,6.32-8.2,11.38a164.23,164.23,0,0,0-18.48,37.43,165.86,165.86,0,0,0-7.11,41.19,134.68,134.68,0,0,0,.2,17.94s1.4-1.66,3.64-4.7C688,118.58,691.93,104.21,695.91,89.84Z" transform="translate(0 29.73)"/><path class="cls-2" d="M661.72,63.24c-9,8-17.62,16.33-26.35,24.55q-14.29,13.47-28.64,26.87c1.82-.82,3.82-1.76,6-2.84a163.65,163.65,0,0,0,34.54-22.94,164.27,164.27,0,0,0,27.9-30.75,143.54,143.54,0,0,0,9.22-14.74C677.12,50.35,669.22,56.55,661.72,63.24Z" transform="translate(0 29.73)"/><path class="cls-2" d="M634.36,86.25C643.1,78,651.7,69.6,660.72,61.69c6.7-5.89,13.66-11.49,20.21-17.54C678,45.23,673.48,47,668,49.61A164.73,164.73,0,0,0,632.79,72a165.1,165.1,0,0,0-27.47,31.52A134.12,134.12,0,0,0,596.17,119s2.07-.69,5.55-2.12Q618.12,101.62,634.36,86.25Z" transform="translate(0 29.73)"/><path class="cls-2" d="M661.22-7.06c-5.73,9.08-11.11,18.4-16.59,27.63q-9,15.1-18,30.18c1.37-1.16,2.85-2.46,4.44-3.92a146.48,146.48,0,0,0,24-28.26A147.14,147.14,0,0,0,671.5-14.78a128.55,128.55,0,0,0,4.29-14.95C671.27-21.95,666-14.67,661.22-7.06Z" transform="translate(0 29.73)"/><path class="cls-2" d="M643.39,19.49C648.86,10.26,654.18.89,660-8.15c4.32-6.71,8.91-13.25,13-20.07-2.26,1.65-5.69,4.3-9.75,7.88a147.45,147.45,0,0,0-24.75,28,148.26,148.26,0,0,0-15.83,33.89,120.36,120.36,0,0,0-4,15.53s1.61-1.11,4.25-3.2Q633.21,36.72,643.39,19.49Z" transform="translate(0 29.73)"/><path class="cls-2" d="M778.85-.14c8.56,6.47,17.4,12.61,26.14,18.84q14.29,10.2,28.57,20.45c-1-1.45-2.22-3-3.54-4.75A150.14,150.14,0,0,0,772-11a133.11,133.11,0,0,0-14.53-5.53C764.85-11.41,771.67-5.56,778.85-.14Z" transform="translate(0 29.73)"/><path class="cls-2" d="M803.81,19.85C795.07,13.62,786.18,7.54,777.67,1c-6.34-4.86-12.46-10-18.92-14.68,1.46,2.39,3.82,6,7,10.38a147.31,147.31,0,0,0,25.79,27A148.12,148.12,0,0,0,824,42.33a120.69,120.69,0,0,0,15.14,5.34s-1-1.69-2.83-4.5Q820.13,31.44,803.81,19.85Z" transform="translate(0 29.73)"/><path class="cls-2" d="M624.16,15.38c-5.71,10.56-11,21.35-16.42,32.06Q598.88,65,590,82.45c1.43-1.39,3-3,4.65-4.7a164,164,0,0,0,24.68-33.32A164.53,164.53,0,0,0,635.05,6a146.19,146.19,0,0,0,3.67-17C634.26-2,629,6.54,624.16,15.38Z" transform="translate(0 29.73)"/><path class="cls-2" d="M606.27,46.33c5.42-10.7,10.64-21.55,16.43-32.06,4.3-7.82,8.93-15.45,13-23.37-2.4,2-6,5.23-10.29,9.53a165.32,165.32,0,0,0-25.5,33,165.6,165.6,0,0,0-15.1,39,133.92,133.92,0,0,0-3.35,17.62s1.71-1.36,4.49-3.89Q596.22,66.32,606.27,46.33Z" transform="translate(0 29.73)"/><path class="cls-2" d="M746.94,49.83c3.59,11.45,7.65,22.77,11.55,34.12q6.4,18.57,12.73,37.15,0-3-.13-6.62a168,168,0,0,0-23.29-79A146.14,146.14,0,0,0,738.17,21C741.52,30.49,743.93,40.24,746.94,49.83Z" transform="translate(0 29.73)"/><path class="cls-2" d="M756.67,84.23c-3.9-11.34-8-22.65-11.55-34.12-2.61-8.53-4.86-17.17-7.68-25.63-.23,3.12-.45,8-.34,14A164.74,164.74,0,0,0,743,79.81a165.51,165.51,0,0,0,17.44,38,135.17,135.17,0,0,0,10.3,14.68s.23-2.17.35-5.93Q764,105.35,756.67,84.23Z" transform="translate(0 29.73)"/><path class="cls-2" d="M740.63,130c3.59,11.45,7.65,22.77,11.55,34.12q6.41,18.57,12.73,37.15,0-3-.13-6.62a168,168,0,0,0-23.29-79,146.14,146.14,0,0,0-9.63-14.47C735.21,110.62,737.62,120.37,740.63,130Z" transform="translate(0 29.73)"/><path class="cls-2" d="M750.36,164.36c-3.9-11.35-8-22.65-11.55-34.12-2.61-8.54-4.86-17.18-7.68-25.63-.23,3.12-.45,8-.34,14a164.74,164.74,0,0,0,5.94,41.32,165.22,165.22,0,0,0,17.44,38,133.85,133.85,0,0,0,10.31,14.69s.22-2.17.34-5.94Q757.7,185.49,750.36,164.36Z" transform="translate(0 29.73)"/><path class="cls-3" d="M161.63,447.64l.53-73.37a4.37,4.37,0,0,0,1.31-3.11,4.28,4.28,0,0,0-4.17-4.37l-15.51-.11a4.28,4.28,0,0,0-4.23,4.31,4.4,4.4,0,0,0,1.27,3.13l-.52,73.37A4.38,4.38,0,0,0,139,450.6a4.27,4.27,0,0,0,4.17,4.36l15.51.12a4.28,4.28,0,0,0,4.23-4.31A4.36,4.36,0,0,0,161.63,447.64Z" transform="translate(0 29.73)"/><path class="cls-3" d="M161,537.41l.52-73.37a4.38,4.38,0,0,0,1.32-3.11,4.28,4.28,0,0,0-4.17-4.37l-15.51-.11a4.27,4.27,0,0,0-4.23,4.31,4.38,4.38,0,0,0,1.27,3.13l-.52,73.36a4.42,4.42,0,0,0-1.32,3.11,4.26,4.26,0,0,0,4.17,4.37l15.51.11a4.27,4.27,0,0,0,4.23-4.3A4.36,4.36,0,0,0,161,537.41Z" transform="translate(0 29.73)"/><path class="cls-3" d="M162.91,268.52l.53-73.36a4.33,4.33,0,0,0,1.31-3.11,4.26,4.26,0,0,0-4.16-4.37l-15.51-.11a4.26,4.26,0,0,0-4.23,4.31,4.38,4.38,0,0,0,1.27,3.13l-.53,73.36a4.35,4.35,0,0,0-1.31,3.11,4.26,4.26,0,0,0,4.16,4.37L160,276a4.26,4.26,0,0,0,4.23-4.31A4.4,4.4,0,0,0,162.91,268.52Z" transform="translate(0 29.73)"/><path class="cls-3" d="M162.27,358.29l.53-73.36a4.37,4.37,0,0,0,1.31-3.11,4.26,4.26,0,0,0-4.17-4.37l-15.51-.11a4.27,4.27,0,0,0-4.23,4.31,4.36,4.36,0,0,0,1.27,3.12L141,358.14a4.38,4.38,0,0,0-1.32,3.11,4.28,4.28,0,0,0,4.17,4.37l15.51.11a4.27,4.27,0,0,0,4.23-4.31A4.4,4.4,0,0,0,162.27,358.29Z" transform="translate(0 29.73)"/><path class="cls-3" d="M163.56,178.33l.52-73.36a4.42,4.42,0,0,0,1.32-3.11,4.27,4.27,0,0,0-4.17-4.37l-15.51-.11a4.27,4.27,0,0,0-4.23,4.31,4.4,4.4,0,0,0,1.27,3.13l-.52,73.36a4.38,4.38,0,0,0-1.32,3.11,4.27,4.27,0,0,0,4.17,4.37l15.51.11a4.27,4.27,0,0,0,4.23-4.31A4.38,4.38,0,0,0,163.56,178.33Z" transform="translate(0 29.73)"/><path class="cls-3" d="M164.2,88.56l.53-73.36A4.37,4.37,0,0,0,166,12.09a4.27,4.27,0,0,0-4.16-4.37l-15.51-.11a4.28,4.28,0,0,0-4.24,4.31,4.43,4.43,0,0,0,1.28,3.13l-.53,73.36a4.38,4.38,0,0,0-1.32,3.11,4.28,4.28,0,0,0,4.17,4.37l15.51.11a4.26,4.26,0,0,0,4.23-4.31A4.4,4.4,0,0,0,164.2,88.56Z" transform="translate(0 29.73)"/><path class="cls-3" d="M188.05,442.19,192.8,369a4.38,4.38,0,0,0,1.5-3,4.3,4.3,0,0,0-3.91-4.62l-15.48-1.07a4.25,4.25,0,0,0-4.47,4,4.43,4.43,0,0,0,1.09,3.21l-4.76,73.2a4.37,4.37,0,0,0-1.49,3,4.29,4.29,0,0,0,3.91,4.62l15.47,1.07a4.24,4.24,0,0,0,4.47-4A4.42,4.42,0,0,0,188.05,442.19Z" transform="translate(0 29.73)"/><path class="cls-3" d="M182.22,531.77,187,458.56a4.37,4.37,0,0,0,1.49-3,4.29,4.29,0,0,0-3.91-4.62l-15.47-1.07a4.26,4.26,0,0,0-4.47,4,4.37,4.37,0,0,0,1.09,3.21L161,530.3a4.34,4.34,0,0,0-1.49,3,4.28,4.28,0,0,0,3.91,4.61L178.84,539a4.25,4.25,0,0,0,4.47-4A4.39,4.39,0,0,0,182.22,531.77Z" transform="translate(0 29.73)"/><path class="cls-3" d="M199.66,263.47l4.76-73.2a4.38,4.38,0,0,0,1.49-3,4.29,4.29,0,0,0-3.91-4.61l-15.47-1.07a4.26,4.26,0,0,0-4.48,4,4.43,4.43,0,0,0,1.09,3.21L178.38,262a4.37,4.37,0,0,0-1.49,3,4.3,4.3,0,0,0,3.91,4.62l15.48,1.07a4.26,4.26,0,0,0,4.47-4.05A4.41,4.41,0,0,0,199.66,263.47Z" transform="translate(0 29.73)"/><path class="cls-3" d="M193.84,353l4.76-73.2a4.37,4.37,0,0,0,1.49-3,4.3,4.3,0,0,0-3.91-4.62l-15.47-1.07a4.26,4.26,0,0,0-4.48,4,4.43,4.43,0,0,0,1.09,3.21l-4.76,73.2a4.38,4.38,0,0,0-1.49,3,4.29,4.29,0,0,0,3.91,4.61l15.48,1.07a4.25,4.25,0,0,0,4.47-4A4.43,4.43,0,0,0,193.84,353Z" transform="translate(0 29.73)"/><path class="cls-3" d="M205.51,173.48l4.76-73.2a4.4,4.4,0,0,0,1.49-3,4.3,4.3,0,0,0-3.91-4.62l-15.47-1.06a4.26,4.26,0,0,0-4.48,4,4.41,4.41,0,0,0,1.09,3.2L184.23,172a4.4,4.4,0,0,0-1.49,3,4.3,4.3,0,0,0,3.91,4.62l15.48,1.06a4.25,4.25,0,0,0,4.47-4A4.41,4.41,0,0,0,205.51,173.48Z" transform="translate(0 29.73)"/><path class="cls-3" d="M211.33,83.91l4.76-73.21a4.37,4.37,0,0,0,1.49-3,4.29,4.29,0,0,0-3.91-4.62L198.2,2a4.26,4.26,0,0,0-4.48,4,4.45,4.45,0,0,0,1.09,3.2l-4.76,73.2a4.4,4.4,0,0,0-1.49,3,4.29,4.29,0,0,0,3.91,4.61L208,91.15a4.25,4.25,0,0,0,4.47-4A4.39,4.39,0,0,0,211.33,83.91Z" transform="translate(0 29.73)"/><path class="cls-3" d="M234.78,27.46c6.74,10.9,13.92,21.54,20.95,32.25q11.52,17.52,23,35.08c-.53-2.07-1.15-4.34-1.88-6.81a174.82,174.82,0,0,0-17.74-40.56,175.77,175.77,0,0,0-27.19-35A156.37,156.37,0,0,0,218.1,0C224.07,8.88,229.14,18.33,234.78,27.46Z" transform="translate(0 29.73)"/><path class="cls-3" d="M253.92,60.48c-7-10.71-14.3-21.31-20.95-32.25-4.95-8.15-9.56-16.49-14.72-24.5.6,3.3,1.64,8.37,3.36,14.59a176.26,176.26,0,0,0,17,41.19,176.75,176.75,0,0,0,28.07,34.71,142.63,142.63,0,0,0,14.54,12.47s-.35-2.3-1.21-6.23C271.41,87.09,262.66,73.79,253.92,60.48Z" transform="translate(0 29.73)"/><path class="cls-3" d="M250.67,101.92c6.73,10.9,13.92,21.54,21,32.25q11.52,17.52,23,35.08c-.53-2.07-1.15-4.34-1.89-6.81A174.74,174.74,0,0,0,275,121.88a175.78,175.78,0,0,0-27.2-35A158.44,158.44,0,0,0,234,74.42C240,83.34,245,92.79,250.67,101.92Z" transform="translate(0 29.73)"/><path class="cls-3" d="M269.81,134.94c-7-10.71-14.3-21.31-21-32.25-4.95-8.15-9.55-16.49-14.71-24.5.6,3.3,1.64,8.37,3.36,14.59a175.83,175.83,0,0,0,17,41.19,176.39,176.39,0,0,0,28.07,34.71,143.32,143.32,0,0,0,14.53,12.47s-.34-2.3-1.2-6.23Q283,154.87,269.81,134.94Z" transform="translate(0 29.73)"/><path class="cls-3" d="M134,135.49c-3.76,12.25-7,24.67-10.44,37-3.72,13.47-7.43,27-11.23,40.4,1.21-1.76,2.51-3.73,3.88-5.91A174.19,174.19,0,0,0,135,166.92a175.11,175.11,0,0,0,8.41-43.54,155.89,155.89,0,0,0,.25-18.56C140.89,115.19,137.12,125.23,134,135.49Z" transform="translate(0 29.73)"/><path class="cls-3" d="M121.77,171.65c3.42-12.34,6.6-24.8,10.44-37,2.85-9.09,6.09-18,8.71-27.21-2.08,2.62-5.21,6.75-8.76,12.14a176.2,176.2,0,0,0-19.72,40,176.54,176.54,0,0,0-7.6,44,143,143,0,0,0,.21,19.15s1.5-1.77,3.89-5C113.29,202.35,117.53,187,121.77,171.65Z" transform="translate(0 29.73)"/><path class="cls-3" d="M102.67,153.81c-10,8.05-19.63,16.51-29.37,24.83q-15.94,13.62-31.94,27.18c2-.79,4.17-1.69,6.53-2.73a174.37,174.37,0,0,0,38-22.67,175.39,175.39,0,0,0,31.35-31.36,156.71,156.71,0,0,0,10.61-15.24C119.77,140.86,111,147.07,102.67,153.81Z" transform="translate(0 29.73)"/><path class="cls-3" d="M72.31,176.94c9.74-8.32,19.35-16.85,29.38-24.83,7.46-5.93,15.16-11.54,22.46-17.66-3.19,1-8.09,2.68-14.06,5.16a175.61,175.61,0,0,0-38.73,22.06,176.38,176.38,0,0,0-30.92,32.19,143.25,143.25,0,0,0-10.56,16s2.24-.63,6-2Q54.18,192.5,72.31,176.94Z" transform="translate(0 29.73)"/><path class="cls-3" d="M180.19,74.94c-3.75,12.25-7,24.67-10.43,37q-5.58,20.21-11.23,40.4c1.21-1.76,2.51-3.73,3.88-5.91a174.6,174.6,0,0,0,18.8-40.08,176,176,0,0,0,8.41-43.54,158.24,158.24,0,0,0,.25-18.56C187.1,54.64,183.34,64.68,180.19,74.94Z" transform="translate(0 29.73)"/><path class="cls-3" d="M168,111.1c3.41-12.34,6.59-24.8,10.43-37,2.86-9.09,6.1-18,8.72-27.21-2.09,2.62-5.21,6.75-8.76,12.14a176.18,176.18,0,0,0-19.73,40,176.94,176.94,0,0,0-7.59,44,143,143,0,0,0,.21,19.15s1.5-1.77,3.89-5C159.51,141.8,163.75,126.45,168,111.1Z" transform="translate(0 29.73)"/><path class="cls-3" d="M131.48,82.7c-9.57,8.52-18.8,17.44-28.14,26.22q-15.25,14.37-30.57,28.69c1.94-.88,4.08-1.88,6.38-3A174.83,174.83,0,0,0,116,110.09a175.86,175.86,0,0,0,29.8-32.85,155.75,155.75,0,0,0,9.85-15.73C147.93,68.94,139.5,75.56,131.48,82.7Z" transform="translate(0 29.73)"/><path class="cls-3" d="M102.28,107.27c9.32-8.78,18.51-17.77,28.14-26.22C137.58,74.76,145,68.78,152,62.32c-3.14,1.15-8,3.06-13.79,5.83a175.92,175.92,0,0,0-37.61,23.91,177,177,0,0,0-29.33,33.65,144.36,144.36,0,0,0-9.77,16.48s2.21-.74,5.93-2.27Q84.93,123.69,102.28,107.27Z" transform="translate(0 29.73)"/><path class="cls-3" d="M131,7.63c-6.12,9.7-11.86,19.65-17.71,29.51Q103.67,53.27,94,69.37c1.46-1.24,3-2.63,4.74-4.19A156.55,156.55,0,0,0,124.44,35,156.84,156.84,0,0,0,141.93-.61a138.9,138.9,0,0,0,4.58-16C141.69-8.27,136.08-.49,131,7.63Z" transform="translate(0 29.73)"/><path class="cls-3" d="M111.91,36c5.85-9.85,11.52-19.86,17.71-29.5C134.23-.7,139.13-7.68,143.54-15c-2.41,1.77-6.08,4.6-10.41,8.42A157.32,157.32,0,0,0,106.7,23.32,158.62,158.62,0,0,0,89.8,59.51a128.79,128.79,0,0,0-4.32,16.58s1.71-1.18,4.53-3.41Q101.05,54.38,111.91,36Z" transform="translate(0 29.73)"/><path class="cls-3" d="M256.56,15c9.14,6.92,18.58,13.47,27.91,20.13Q299.74,46,315,57c-1.1-1.55-2.36-3.25-3.77-5.07A160.32,160.32,0,0,0,249.27,3.39a139.91,139.91,0,0,0-15.52-5.91C241.61,3,248.9,9.23,256.56,15Z" transform="translate(0 29.73)"/><path class="cls-3" d="M283.21,36.37c-9.33-6.65-18.82-13.15-27.92-20.12C248.53,11.06,242,5.58,235.1.57c1.56,2.56,4.07,6.45,7.52,11.09A157.24,157.24,0,0,0,270.15,40.5,158.38,158.38,0,0,0,304.8,60.38,129.3,129.3,0,0,0,321,66.08s-1-1.81-3-4.81Q300.63,48.75,283.21,36.37Z" transform="translate(0 29.73)"/><path class="cls-3" d="M91.38,31.6C85.29,42.87,79.63,54.4,73.85,65.83q-9.46,18.72-19,37.39c1.53-1.49,3.19-3.16,5-5A174.54,174.54,0,0,0,86.17,62.61a175.29,175.29,0,0,0,16.84-41,156.32,156.32,0,0,0,3.91-18.15C102.17,13.06,96.49,22.16,91.38,31.6Z" transform="translate(0 29.73)"/><path class="cls-3" d="M72.28,64.64c5.78-11.42,11.36-23,17.54-34.23,4.59-8.35,9.54-16.5,13.91-25-2.56,2.16-6.43,5.59-11,10.18A175.79,175.79,0,0,0,65.52,50.92,176.7,176.7,0,0,0,49.39,92.54a143.81,143.81,0,0,0-3.58,18.82s1.83-1.44,4.8-4.15Q61.55,86,72.28,64.64Z" transform="translate(0 29.73)"/><path class="cls-3" d="M222.49,68.39c3.83,12.22,8.16,24.31,12.33,36.43,4.55,13.21,9.11,26.43,13.59,39.67,0-2.14,0-4.5-.14-7.07a174.56,174.56,0,0,0-7.17-43.69,175.48,175.48,0,0,0-17.69-40.66,157.71,157.71,0,0,0-10.29-15.45C216.7,47.73,219.27,58.15,222.49,68.39Z" transform="translate(0 29.73)"/><path class="cls-3" d="M232.88,105.11c-4.17-12.11-8.59-24.18-12.34-36.43-2.79-9.11-5.18-18.34-8.2-27.37-.24,3.34-.48,8.51-.36,15a176.24,176.24,0,0,0,6.34,44.12A177,177,0,0,0,236.94,141a143.66,143.66,0,0,0,11,15.68s.23-2.32.37-6.34Q240.7,127.68,232.88,105.11Z" transform="translate(0 29.73)"/><path class="cls-3" d="M215.75,154c3.83,12.23,8.17,24.31,12.34,36.43q6.82,19.83,13.58,39.67c0-2.14,0-4.5-.14-7.07a174.63,174.63,0,0,0-7.17-43.69,175.67,175.67,0,0,0-17.69-40.66,157.1,157.1,0,0,0-10.29-15.45C210,133.3,212.54,143.71,215.75,154Z" transform="translate(0 29.73)"/><path class="cls-3" d="M226.14,190.68c-4.17-12.11-8.59-24.19-12.34-36.44-2.78-9.11-5.18-18.33-8.2-27.37-.24,3.34-.48,8.51-.36,15A176.12,176.12,0,0,0,211.58,186a177,177,0,0,0,18.63,40.57,144.61,144.61,0,0,0,11,15.68s.24-2.32.37-6.34C236.51,220.78,231.32,205.73,226.14,190.68Z" transform="translate(0 29.73)"/></g></svg>