<?xml version="1.0" encoding="utf-8"?>
<!-- Generator: Adobe Illustrator 25.2.1, SVG Export Plug-In . SVG Version: 6.00 Build 0)  -->
<svg version="1.1" id="Calque_1" xmlns="http://www.w3.org/2000/svg" xmlns:xlink="http://www.w3.org/1999/xlink" x="0px" y="0px"
	 viewBox="0 0 72.5 72.5" style="enable-background:new 0 0 72.5 72.5;" xml:space="preserve">
<style type="text/css">
	.st0{fill:#36C1A7;}
	.st1{fill:#FFFFFF;}
</style>
<circle class="st0" cx="36.2" cy="36.2" r="36.2"/>
<path class="st1" d="M53.1,29.6v-3l0,0v-1.5c0-4.1-2.4-8.4-7.6-8.4l0,0c-1-0.1-2-0.1-3,0.1c-2.7,0.1-5.7,2-6.1,2.1s-3.4-2-6.2-2.1
	c-1-0.2-2-0.2-3-0.1l0,0c-5.2,0-7.6,4.3-7.6,8.4v1.4l0,0v3l0.1,0.5v1.4c1.2,12.2,5.2,28.3,9.5,28.3h0.5l0.2-0.1l0,0
	c0,0,0.1,0,0.1-0.1l0,0l0.1-0.1l0,0l0.1-0.1l0,0l0.3-0.1c0.2-0.1,0.3-0.1,0.5-0.3l0,0l0.1-0.1l0,0c0.1-0.2,0.2-0.3,0.2-0.5
	c0.3-0.9,0.5-1.8,0.4-2.8c0-0.5,0-0.9,0-1.4c0-5.2,2.2-9.5,5-9.7c2.8,0.2,5,4.4,5,9.7v1.4c-0.1,0.9,0.1,1.9,0.4,2.8
	c0.1,0.2,0.1,0.3,0.2,0.5l0,0l0.1,0.1V59l0.1,0.2l0,0l0.1,0.1l0,0l0.1,0.1l0,0l0.1,0.1l0,0l0.1,0.1l0,0l0.2,0.1h0.4
	c4.5,0.1,8.5-16,9.7-28.2C53.2,30.7,53.1,29.6,53.1,29.6z"/>
</svg>
